# xmcd CD database file
#
# Track frame offsets:
#	150
#	47125
#	78352
#	99552
#	123527
#	153777
#	180462
#	203185
#	233157
#	275175
#	297155
#	314397
#
# Disc length: 4436 seconds
#
# Revision: 2
# Processed by: cddbd v1.5.2PL0 Copyright (c) Steve Scherf et al.
# Submitted via: CDex 1.70beta2
#
DISCID=a611520c
DTITLE=Wishbone Ash - The King Will Come - Best - Zounds
DYEAR=1996
DGENRE=Hard Rock/Classic Rock
TTITLE0=Phoenix (Remastered)
TTITLE1=Errors Of My Ways (Remastered)
TTITLE2=Jail Bait (Remastered)
TTITLE3=Blowin' Free (Remastered)
TTITLE4=The King Will Come (LIVE) (Remastered)
TTITLE5=Throw Down The Sword (Remastered)
TTITLE6=Ballad Of The Beacon (Remastered)
TTITLE7=Silver Shoes (Remastered)
TTITLE8=F. U. B. B. (Remastered)
TTITLE9=Outward Bound (Remastered)
TTITLE10=Goodbye Baby, Hello Friend (Remastered)
TTITLE11=Helpless (Remastered)
EXTD=YEAR: 1996
EXTT0=
EXTT1=
EXTT2=
EXTT3=
EXTT4=
EXTT5=
EXTT6=
EXTT7=
EXTT8=
EXTT9=
EXTT10=
EXTT11=
PLAYORDER=
